<?xml version="1.0" standalone="no"?>
<!DOCTYPE svg PUBLIC "-//W3C//DTD SVG 20010904//EN"
 "http://www.w3.org/TR/2001/REC-SVG-20010904/DTD/svg10.dtd">
<svg version="1.0" xmlns="http://www.w3.org/2000/svg"
 width="712.000000pt" height="712.000000pt" viewBox="0 0 712.000000 712.000000"
 preserveAspectRatio="xMidYMid meet">
<metadata>
Created by potrace 1.14, written by Peter Selinger 2001-2017
</metadata>
<g transform="translate(0.000000,712.000000) scale(0.100000,-0.100000)"
fill="#000000" stroke="none">
<path d="M3347 6203 c-4 -3 -53 -7 -109 -10 -136 -5 -223 -10 -223 -13 0 -1
-27 -4 -60 -6 -33 -2 -78 -6 -100 -9 -22 -3 -77 -9 -122 -14 -46 -5 -88 -13
-94 -17 -7 -4 -29 -6 -51 -6 -21 1 -38 -2 -38 -6 0 -5 -15 -9 -32 -9 -18 -1
-49 -4 -68 -7 -73 -12 -206 -39 -220 -44 -8 -2 -25 -6 -38 -8 -13 -1 -29 -7
-35 -12 -7 -5 -20 -8 -29 -7 -10 2 -18 -1 -18 -6 0 -5 -12 -9 -27 -9 -37 0
-103 -19 -103 -29 0 -5 -11 -6 -25 -3 -14 2 -32 -1 -40 -8 -8 -6 -19 -9 -24
-6 -5 4 -12 2 -16 -3 -3 -5 -14 -8 -25 -6 -11 2 -20 0 -20 -5 0 -6 -20 -15
-45 -21 -25 -6 -48 -15 -50 -20 -3 -4 -13 -5 -22 -2 -12 5 -14 3 -8 -7 5 -9 4
-11 -4 -6 -6 4 -17 3 -24 -2 -7 -6 -15 -11 -19 -11 -5 -1 -9 -1 -10 -2 -2 0
-10 -2 -18 -4 -8 -2 -37 -13 -65 -26 -27 -12 -56 -21 -62 -20 -7 1 -13 -3 -13
-10 0 -6 -7 -8 -15 -5 -9 3 -18 -1 -21 -9 -4 -8 -17 -15 -30 -15 -14 0 -27 -6
-29 -12 -3 -7 -17 -14 -32 -15 -15 0 -29 -6 -31 -12 -2 -6 -7 -9 -12 -6 -4 3
-13 -2 -20 -10 -7 -8 -21 -15 -31 -15 -11 0 -19 -4 -19 -10 0 -5 -9 -10 -21
-10 -11 0 -17 -4 -14 -10 3 -6 -1 -7 -9 -4 -9 3 -16 1 -16 -6 0 -6 -4 -9 -8
-6 -5 3 -15 -3 -24 -13 -17 -20 -19 -263 -22 -2001 -1 -853 2 -1004 19 -1110
3 -19 7 -46 9 -60 2 -14 6 -32 10 -41 4 -10 6 -23 5 -30 -1 -8 0 -21 3 -29 5
-14 25 -94 33 -130 2 -8 4 -15 5 -15 1 0 3 -12 4 -27 2 -15 7 -33 13 -40 5 -7
16 -34 23 -60 7 -27 16 -48 19 -48 4 0 7 -10 8 -22 1 -11 7 -24 14 -28 6 -4 9
-12 6 -17 -3 -5 5 -26 18 -46 14 -20 25 -41 25 -46 0 -6 5 -11 11 -11 6 0 9
-6 6 -14 -3 -8 1 -17 9 -20 8 -3 14 -12 14 -21 0 -8 5 -15 10 -15 6 0 10 -6
10 -14 0 -8 8 -22 18 -32 9 -10 17 -20 17 -24 0 -4 7 -13 15 -22 8 -8 26 -30
40 -49 14 -18 46 -55 72 -82 27 -27 48 -53 48 -58 0 -5 8 -9 17 -9 9 0 14 -3
10 -6 -5 -5 34 -43 107 -103 10 -9 32 -28 48 -42 16 -15 42 -33 56 -40 15 -8
34 -21 43 -29 37 -32 49 -40 59 -40 5 0 10 -3 10 -7 0 -13 61 -43 72 -36 6 3
8 1 5 -4 -4 -6 7 -16 23 -23 17 -7 30 -17 30 -22 0 -5 5 -6 10 -3 6 3 10 1 10
-4 0 -6 6 -11 14 -11 7 0 19 -7 26 -15 7 -8 20 -15 30 -15 10 0 23 -7 30 -15
7 -9 15 -13 18 -11 2 3 16 -4 30 -14 13 -11 29 -20 35 -20 5 0 26 -10 46 -22
20 -13 38 -24 41 -24 33 -9 50 -18 50 -24 0 -4 10 -11 23 -15 30 -10 36 -12
42 -15 3 -1 8 -3 13 -4 4 -1 17 -7 28 -14 12 -6 24 -8 28 -5 3 3 6 2 6 -4 0
-6 11 -14 25 -17 14 -4 25 -11 25 -17 0 -6 5 -7 10 -4 6 3 10 1 10 -6 0 -7 3
-10 6 -6 3 3 27 -5 52 -17 97 -47 116 -54 127 -49 5 4 7 3 3 -2 -9 -9 23 -27
79 -45 21 -7 48 -19 61 -27 12 -7 27 -11 32 -8 6 3 10 2 10 -2 0 -10 109 -59
122 -56 4 2 8 -1 8 -5 0 -5 18 -15 40 -22 22 -7 40 -17 40 -22 0 -5 10 -4 21
3 15 8 19 8 15 0 -4 -6 0 -11 8 -11 9 0 16 -5 16 -12 0 -6 3 -9 6 -5 4 3 19 0
35 -9 16 -8 29 -12 29 -9 0 3 10 -1 23 -9 12 -7 34 -16 50 -20 15 -4 27 -11
27 -17 0 -6 4 -8 9 -4 6 3 26 -4 46 -15 37 -21 95 -27 95 -10 0 6 7 10 15 10
9 0 27 7 40 16 13 9 29 13 35 9 5 -3 10 -2 10 3 0 5 18 15 40 22 22 7 40 17
40 22 0 5 6 8 13 7 18 -3 67 12 67 21 0 4 18 10 40 14 22 3 40 11 40 17 0 5 5
7 10 4 6 -3 10 -2 10 4 0 6 7 8 15 5 8 -4 15 -1 15 4 0 6 9 9 20 7 11 -2 20 0
20 4 0 7 92 52 112 55 3 1 10 4 14 9 4 4 16 7 26 7 10 0 18 4 18 8 0 4 23 16
50 26 28 10 50 23 50 28 0 6 7 8 15 4 8 -3 15 -1 15 5 0 6 5 7 10 4 6 -3 10
-1 10 4 0 6 9 11 21 11 13 0 18 4 13 12 -4 6 -3 8 3 5 12 -7 73 14 73 25 0 4
6 8 14 8 17 0 80 32 84 43 2 4 9 4 14 1 6 -4 17 1 25 11 7 11 13 16 13 12 0
-6 55 17 100 43 14 8 31 15 38 16 8 1 22 10 31 18 10 9 21 13 24 9 4 -3 7 -1
7 5 0 6 13 13 30 17 16 4 34 14 40 23 5 9 10 14 10 9 0 -4 10 -1 23 7 12 8 24
15 27 14 12 -2 50 14 50 22 0 4 14 13 30 19 17 5 30 15 30 20 0 6 6 11 13 11
8 0 36 16 63 35 27 19 53 35 58 35 5 0 19 11 32 26 13 14 24 22 24 18 0 -8 65
40 99 73 13 13 30 23 37 23 8 0 14 7 14 15 0 8 5 15 11 15 7 0 22 11 35 26 13
14 24 22 24 18 0 -5 11 7 25 26 14 19 25 30 25 25 0 -5 8 2 17 15 9 14 35 44
57 68 23 24 40 47 39 53 -2 5 4 9 12 9 8 0 15 4 15 8 0 5 11 22 24 37 14 16
23 32 20 36 -2 4 3 9 11 13 8 3 15 12 15 21 0 8 5 15 10 15 6 0 10 5 10 11 0
6 9 22 20 36 11 14 17 29 14 34 -3 5 -1 9 5 9 5 0 17 20 27 45 9 25 21 45 26
45 5 0 7 4 3 9 -3 5 -1 12 5 16 6 4 8 10 5 15 -3 5 -1 11 5 15 5 3 10 14 10
23 0 9 9 28 19 41 10 14 17 31 14 38 -3 7 -1 13 4 13 5 0 9 10 8 22 -1 13 3
32 9 43 5 11 11 22 11 25 1 3 7 22 14 43 7 21 11 47 8 57 -3 10 1 27 9 38 7
11 11 22 7 25 -3 3 -2 14 3 24 4 10 9 29 11 43 1 14 5 43 8 65 2 22 8 60 11
85 9 56 16 1679 8 1700 -4 8 -6 305 -7 660 0 603 -1 646 -17 662 -10 9 -21 14
-24 11 -3 -4 -6 -1 -6 6 0 8 -7 11 -15 7 -8 -3 -15 -1 -15 5 0 6 -7 9 -15 5
-9 -3 -15 0 -15 8 0 7 -19 19 -42 26 -24 8 -45 17 -48 20 -3 3 -16 10 -30 17
-64 29 -126 56 -135 58 -33 8 -75 28 -75 37 0 5 -4 6 -10 3 -5 -3 -30 3 -54
14 -25 10 -47 17 -50 13 -3 -3 -6 0 -6 7 0 8 -8 11 -20 8 -11 -3 -20 -2 -20 3
0 4 -21 13 -47 20 -27 7 -52 16 -58 19 -9 5 -26 8 -62 13 -7 1 -13 5 -13 10 0
4 -13 7 -29 6 -16 -1 -35 3 -43 9 -13 11 -118 35 -150 35 -10 -1 -18 3 -18 7
0 8 -66 24 -150 37 -25 3 -56 11 -70 17 -14 6 -43 11 -65 12 -22 1 -43 3 -47
5 -5 1 -16 3 -25 4 -10 1 -23 5 -29 9 -7 4 -23 6 -35 6 -13 -1 -48 4 -78 10
-29 6 -71 11 -92 11 -22 0 -39 3 -39 8 0 4 -21 8 -47 9 -27 0 -79 4 -118 7
-114 11 -184 16 -286 20 -53 2 -101 6 -106 9 -13 8 -449 8 -456 0z"/>
</g>
</svg>
